<?xml version="1.0" encoding="UTF-8"?>
<svg id="Layer_2" data-name="Layer 2" xmlns="http://www.w3.org/2000/svg" width="472" height="314.68" viewBox="0 0 472 314.68">
  <g id="Layer_1-2" data-name="Layer 1">
    <g>
      <path d="M471.99,151.32c-.24-10.78-8.63-21.52-24.23-21.18-6.6.14-12.71,2.38-17.86,6.49-4.05-3.59-9.79-5.88-17.13-5.72-3.34.07-6.55.68-9.58,1.8,2.36-2.17,4.86-4.56,7.51-7.17,3.92-3.85,6.09-9.21,5.97-14.7l-.11-4.85c-.11-4.9-2.01-9.48-4.99-12.9.02-.51.03-1.04.02-1.56-.09-4.17-1.16-8.36-3.37-13.17-6.28-13.68-17.27-14.93-21.7-14.83-3.97.09-7.31,1.28-10.01,2.77-4.08-2.69-8.87-4.07-13.94-3.96-5.42.12-10.69,1.85-16,5.28-3.22-1.25-6.7-1.84-10.38-1.76-3.13.07-7.16.7-11.44,2.79-1.12-1.54-2.38-2.98-3.79-4.29-4.65-4.31-10.59-6.61-16.74-6.48-6.67.15-14.12,2.37-23.44,6.98-2.67,1.32-5.36,2.86-8.06,4.6,2.99-4.62,5.17-8.14,6.52-10.52,3.47-6.08,4.97-11.03,4.86-16.04-.18-8.13-5.07-15.5-12.77-19.24-3.52-1.71-7.34-2.59-13.14-2.87-9.22.2-15.83,6.06-21.59,12.35-4.26,4.65-9.26,11-15.28,19.43-2.78,3.89-5.85,8.35-9.18,13.34-4.49-3.79-10.07-5.8-15.83-5.67-6.67.15-14.12,2.37-23.44,6.98-3.5,1.74-7.04,3.84-10.59,6.29-1.94-2.06-4.24-3.77-6.94-5.12-3.22-1.5-6.78-2.18-10.87-2.09-.93.02-2.21.08-4.3.31-3.65-2.54-8.09-3.87-12.8-3.77-.58.01-1.16.05-1.74.1-1.33-3.39-3.3-6.41-5.79-8.94,3.21-4.31,5.44-8.51,6.92-13.02,1.71-5.78,1.8-11.48.27-16.94-1.07-3.85-2.67-7.47-4.78-10.8-3.2-5.01-7.47-8.72-12.68-11.01C105.99.67,102.13-.08,98.11,0c-2.5.05-5.05.44-7.58,1.15-5.83,1.64-12.48,4.98-21.53,10.84-7.95,5.13-16.3,11.68-24.81,19.49-8.65,7.93-16.29,16.45-22.77,25.41-4.32,6.09-8.08,12.53-11.17,19.13-3.15,6.7-5.63,13.57-7.38,20.43C1.06,103.56.1,110.48,0,117.03c-.09,6.88.73,13.43,2.42,19.47,3.02,10.78,8.46,19.38,16.19,25.58,5.98,4.77,12.45,7.49,19.29,8.09-.07.14-.15.28-.22.42-5.67,11.03-7.21,21.44-4.56,30.9,1.84,6.61,5.87,12.03,11.69,15.67,4.33,2.7,9.27,4.06,14.29,3.95.47-.01.95-.04,1.43-.07,2.85,5.62,6.96,10.33,12.25,14.05,1.06.74,2.14,1.41,3.24,2.03-.71,1.04-1.38,2.08-2.01,3.12-4.91,8.01-8.04,16.03-9.29,23.83-1.39,8.63-.68,16.86,2.09,24.48,4.37,12,13.61,20.6,26.03,24.22,4.67,1.36,9.58,1.99,14.58,1.88,6.08-.13,12.4-1.38,18.82-3.7,8.02-2.92,16.19-7.04,24.25-12.25,7.98-5.13,15.2-10.82,21.44-16.91,7.02-6.83,11.98-13.26,15.16-19.63,3.23-6.43,5.11-12.85,5.62-19.17.85-.43,1.69-.91,2.54-1.42,5.91,3.85,11.95,4.47,15.67,4.39,6.28-.14,12.34-2.23,18.36-6.37,4.04,2.65,8.4,3.94,13.04,3.84,3.34-.07,6.64-.82,9.87-2.25,4.05,2.58,8.92,3.96,14.03,3.84,5.86-.13,11.7-2.24,17.97-6.53,5.57,4.35,12.07,6.56,18.95,6.41,5.95-.13,11.77-1.82,17.33-5.03,1.96-1.13,3.91-2.42,5.87-3.88,5.38,3.64,11.57,5.47,18.02,5.33,6.31-.14,12.49-2.34,18.44-6.56,5.13,5.68,12.38,8.83,20.1,8.66,6.06-.13,12.05-2.13,18.39-6.18,4.69,3.61,10.51,5.55,16.6,5.41,12.49-.27,24.48-8.21,41.39-27.39,3.34-3.78,5.11-8.63,5-13.67l-.1-4.58c-.08-3.77-1.24-7.37-3.22-10.43,3.38-4.85,6.3-9.68,8.7-14.4,2.28-4.48,2.77-9.61,1.45-14.41.64-2.12.94-4.26.89-6.47ZM460.65,158.37c1.55,2.89,1.59,6.36.1,9.28-2.74,5.37-6.21,10.9-10.32,16.46-1.2,1.62-2.85,2.82-4.71,3.48.87.13,1.73.38,2.55.75,3.53,1.58,5.83,5.04,5.91,8.91l.1,4.58c.06,2.51-.83,4.95-2.5,6.83-14.65,16.62-24.85,23.8-34.11,24.01-5.12.11-9.71-1.99-12.95-5.93-.78-.94-1.45-1.96-2.03-3.03-7.61,6.53-14.01,9.6-20.02,9.73-5.12.11-9.71-1.99-12.95-5.93-1.79-2.17-3.02-4.68-3.7-7.49-.63.12-1.29.21-1.96.29-6.71,7.27-13.26,10.89-19.93,11.04-4.81.11-9.42-1.43-13.34-4.44-1.55-1.19-2.95-2.56-4.21-4.11-.33.31-.65.6-.96.87-3.56,3.2-6.89,5.68-10.15,7.56-4.09,2.36-8.31,3.6-12.55,3.69-5.07.11-9.87-1.76-13.9-5.41-1.46-1.32-2.78-2.82-3.96-4.48-7.49,6.8-13.51,9.89-19.06,10.02-5.15.11-9.64-2.09-12.32-6.04-.07-.1-.13-.19-.19-.28-3.02,2.43-6.87,4.62-11.39,4.72-6.07.13-10.11-4.33-11.44-5.79-.36-.4-.72-.81-1.06-1.24-6.64,6.41-12.73,9.44-18.89,9.57-3.59.08-9.9-.86-14.8-7.34-4.62,4.12-8.99,6.56-13.34,7.53.06.64.24,1.33.27,1.96.27,6.27-1.3,12.84-4.67,19.56-2.68,5.38-6.99,10.93-13.19,16.95-5.78,5.63-12.47,10.9-19.88,15.67-7.47,4.82-14.96,8.6-22.26,11.26-5.37,1.94-10.63,2.99-15.62,3.1-3.98.09-7.88-.41-11.57-1.48-9.4-2.74-16.12-8.97-19.41-18.03-2.19-6-2.73-12.55-1.61-19.47,1.05-6.51,3.72-13.31,7.95-20.2,2.76-4.51,6.31-9.1,10.59-13.69-5.41-.24-10.32-1.88-14.61-4.89-4.91-3.44-8.44-8.03-10.5-13.67-.52-1.43-.88-2.91-1.18-4.41-1.3.75-2.6,1.34-3.92,1.7-1.27.36-2.66.57-4.04.6-3.07.07-6.1-.77-8.78-2.44-3.66-2.29-6.19-5.7-7.35-9.86-1.95-6.97-.67-14.94,3.81-23.65,3.54-6.9,8.97-14.21,16.58-22.29,1.06-3.08,2.08-6.16,3.07-9.24-6.7,8.98-12.77,14.04-18.91,15.77-1.94.55-3.93.85-5.91.89-5.81.13-11.39-1.9-16.56-6.03-6.06-4.86-10.35-11.74-12.8-20.47-1.44-5.13-2.13-10.73-2.05-16.65.08-5.73.94-11.87,2.56-18.24,1.59-6.25,3.86-12.51,6.74-18.64,2.85-6.07,6.31-11.99,10.28-17.59,6.03-8.35,13.2-16.34,21.37-23.82,8.09-7.42,15.99-13.63,23.48-18.45,8.07-5.22,14.05-8.27,18.81-9.61,1.71-.48,3.43-.75,5.1-.79,2.54-.06,4.96.41,7.2,1.4,3.37,1.48,6.17,3.92,8.29,7.24,1.57,2.48,2.77,5.19,3.58,8.1,1.02,3.63.95,7.47-.22,11.41-1.48,4.51-4.26,8.95-8.57,13.84-1.31,1.49-2.64,2.94-3.99,4.36,1.02.27,2.02.63,2.99,1.1,4.64,2.17,7.97,6.07,9.32,10.95.61,2.17.59,4.25-.39,9.28,1.85-1.59,3.7-2.76,5.61-3.55,1.21-.68,3.31-1.24,5.45-1.28,3.87-.08,7.2,1.57,9.29,4.28,4.47-.66,6.52-.8,7.81-.83,1.62-.04,4.04.05,6.43,1.16,3.4,1.7,5.73,4.52,7.16,8.51.32.89.58,1.78.8,2.68,6.18-5.36,12.27-9.52,18.22-12.47,7.96-3.95,14.07-5.83,19.22-5.95,3.54-.08,6.99,1.27,9.71,3.81,1.75,1.63,3.17,3.54,4.21,5.71.81,1.69,1.32,3.16,1.58,4.58,6.64-10.34,12.49-19.05,17.42-25.95,5.79-8.11,10.54-14.16,14.5-18.48,5.08-5.54,9.27-9,14.45-9.11,3.88.21,6.37.81,8.56,1.87,4.37,2.12,7.04,6.03,7.14,10.46.07,3.13-.99,6.39-3.55,10.86-1.58,2.77-4.29,7.1-8.15,12.98-2.44,3.63-4.45,6.6-6.03,8.92,2.54.68,5.58,2.27,8.29,5.8,1.13,1.46,2,2.9,2.64,4.33,6.07-5.23,12.05-9.3,17.91-12.19,7.96-3.95,14.07-5.83,19.22-5.95,3.54-.08,6.99,1.27,9.71,3.81,1.75,1.63,3.17,3.54,4.21,5.71,1.17,2.43,1.71,4.41,1.76,6.43.01.67-.02,1.33-.11,1.98,1.24-1.6,2.38-2.91,3.42-3.98,4.71-4.79,9.65-5.89,12.97-5.96,3.08-.07,5.89.58,8.36,1.92.93.51,1.78,1.11,2.54,1.79.45-.38.89-.75,1.33-1.1,4.97-4.02,9.6-6.03,14.16-6.13,4.27-.09,8.19,1.59,11.05,4.75.68.74,1.27,1.54,1.78,2.39.36-.33.71-.64,1.06-.94,2.96-2.59,5.96-4.93,10.07-5.02h0c3.09-.07,8.72,1.01,12.38,9.01,1.62,3.52,2.4,6.45,2.46,9.22.04,1.89-.38,3.63-1.24,5.42.03.02.07.03.11.05,3.62,1.53,6.01,5.05,6.09,8.98l.11,4.85c.06,2.75-1.02,5.41-2.98,7.35-4.03,3.98-7.71,7.41-11.01,10.3-3.69,3.24-6.9,5.64-9.81,7.36-3.9,2.3-7.44,3.46-10.8,3.53-4.25.09-8.19-1.57-11.11-4.69-.75-.8-1.39-1.66-1.95-2.57-3.98,3.94-8.22,5.95-12.67,6.05-4.12.09-8.47-1.68-11.18-5.6-.08.1-.16.19-.23.28-3.57,4.15-7.67,4.85-9.8,4.9-3.12.07-7.24-.91-10.89-5.26-7.35,6.6-13.27,9.62-18.75,9.74-5.15.11-9.64-2.09-12.32-6.04-.07-.1-.13-.19-.19-.28-3.02,2.43-6.87,4.62-11.39,4.72-6.07.13-10.11-4.33-11.44-5.79-.76-.84-1.48-1.75-2.18-2.73-2.91,2.64-5.51,4.68-7.91,6.23-.91.59-1.77.88-2.65,1.32.6,1.85.96,3.96,1.02,6.85.18,8.15-2.56,17.44-8.37,28.41-.53,1-1.08,2-1.65,3.01,5.88-5,11.67-8.9,17.34-11.71,7.96-3.95,14.07-5.83,19.22-5.95,3.54-.08,6.99,1.27,9.71,3.81,1.75,1.63,3.17,3.54,4.21,5.71,1.17,2.43,1.71,4.41,1.76,6.43.03,1.38-.16,2.72-.56,3.98.32-.33.66-.68,1-1.03,5.1-5.22,9.8-9.22,14.39-12.21,5.66-3.7,10.29-5.47,14.57-5.56,4.32-.09,8.24,1.42,11.34,4.39,1.96,1.87,3.35,4.11,4.14,6.62,2.8-2.51,5.77-4.66,8.87-6.42,4.91-2.78,9.76-4.25,14.42-4.35,3.85-.08,7.06.56,9.83,1.96,1.3.66,2.45,1.48,3.43,2.43,1.66-2.81,3.42-5.13,5.26-6.89,2.59-2.47,5.74-4.18,9.38-5.09,2.07-.51,4.59-.85,7.63-1.02,1.79-2.81,3.54-5.03,5.29-6.71,3.72-3.58,8.34-5.53,13.35-5.64,10.86-.24,13.92,7.05,14.01,11.4,0,.12,0,.23,0,.35.74-.07,1.52-.13,2.33-.17,1.79-2.81,3.54-5.03,5.29-6.71,3.72-3.58,8.34-5.53,13.35-5.64,10.86-.24,13.92,7.05,14.01,11.4.05,2.27-.61,4.26-1.71,6.22.13.2.25.41.37.62Z"/>
      <g>
        <path d="M452,151.76c-.02-1.14-1.29-1.68-3.8-1.63-2.5.06-4.72,1-6.64,2.85-1.92,1.84-4.04,4.95-6.36,9.34l-2.94.06c-3.51.08-6.22.35-8.15.83-1.93.48-3.55,1.34-4.87,2.6-1.32,1.26-2.7,3.18-4.15,5.77-1.8,3.05-2.69,5.32-2.65,6.83,0,.27.1.41.28.4s.51-.09.99-.26.98-.33,1.53-.48c1.31-.4,3.31-.62,6-.68.82-.02,1.53-.02,2.12-.01s1.23.03,1.92.06c-6.47,10.07-12.02,17.14-16.67,21.28-4.31,3.66-7.84,6.46-10.47,8.28-2.76,1.91-5.01,2.88-6.74,2.92-2.5.06-3.79-1.49-3.86-4.63-.05-2.32.34-4.79,1.17-7.41.83-2.62,2.04-5.51,3.64-8.66,1.6-3.16,3.58-6.75,5.95-10.76,1.28.06,2.36.12,3.25.17.89.05,1.77.1,2.64.15s1.94.1,3.22.17c3.81-5.14,6.96-10.16,9.45-15.05-.69-.08-1.63-.17-2.84-.28-1.21-.11-2.59-.24-4.15-.39.96-1.66,2.4-3.72,4.31-6.18,1.9-2.46,2.85-3.96,2.84-4.51-.02-1.14-1.29-1.68-3.8-1.63-2.5.06-4.72,1-6.64,2.85-1.92,1.84-4.04,4.95-6.36,9.34l-2.94.06c-3.51.08-6.22.35-8.15.83-1.93.48-3.55,1.34-4.87,2.6-1.32,1.26-2.7,3.18-4.15,5.77-1.8,3.05-2.69,5.32-2.65,6.83,0,.27.1.41.28.4s.51-.09.99-.26.98-.33,1.53-.48c1.31-.4,3.31-.62,6-.68.82-.02,1.53-.02,2.12-.01.59.01,1.23.03,1.92.06-6.42,9.98-11.92,17-16.55,21.16-1.67,1.31-2.85,2.23-3.37,2.63-.58.45-1.25.87-1.99,1.27s-1.5.61-2.28.63l-1.03.02-1.26-1.2c1.71-2.95,3.05-6.11,4-9.46.95-3.35,1.4-6.12,1.36-8.3-.05-2.23-.4-3.76-1.06-4.59s-1.85-1.4-3.59-1.73c1.02-1.21,1.52-2.27,1.5-3.18-.03-1.19-.66-2.1-1.91-2.73-1.24-.63-2.94-.93-5.08-.88-3.01.07-6.24,1.08-9.71,3.05-3.47,1.97-6.7,4.52-9.71,7.67-3.01,3.14-5.44,6.51-7.3,10.11-1.52,2.94-2.23,5.6-2.46,8.08-5.07,4.07-9.55,7.27-13.36,9.46-3.98,2.3-7.41,3.48-10.28,3.54s-5.05-.73-6.82-2.38c-1.77-1.65-2.68-3.81-2.74-6.5-.03-1.46.43-2.86,1.38-4.2.95-1.34,2.26-2.68,3.91-4.02,1.66-1.34,4.73-3.65,9.22-6.94.54-.42,1-.6,1.39-.54s.59.36.6.91c0,.32,0,.64-.01.96s-.04.66-.08,1.03c.03,1.27.63,1.9,1.82,1.87,1.09-.02,2.55-1.05,4.38-3.07s3.46-4.39,4.9-7.12c1.44-2.72,2.15-4.81,2.12-6.27-.04-1.73-.64-3.16-1.8-4.27-1.16-1.11-2.57-1.65-4.21-1.62-2.28.05-5.38,1.36-9.32,3.93-3.93,2.57-8.17,6.19-12.72,10.84-3.84,3.91-6.41,7.09-7.72,9.54-1,1.86-1.47,3.97-1.67,6.21-6.04,5.38-10.61,8.21-13.6,8.27-3.1.07-4.68-1.58-4.76-4.96-.05-2.05.36-3.79,1.22-5.22.86-1.43,2.36-3.67,4.5-6.7,2.15-3.03,3.2-5.1,3.18-6.19-.01-.55-.16-1.17-.45-1.87-.29-.7-.69-1.62-1.22-2.74s-.96-2.05-1.29-2.78c1.58-.58,2.69-1.07,3.32-1.47.63-.4.94-1.01.92-1.83-.01-.5-.27-1.27-.77-2.31s-1.17-1.95-2.01-2.73c-.84-.78-1.73-1.16-2.69-1.14-3.55.08-8.55,1.72-15,4.91-6.45,3.19-13.06,8.01-19.85,14.45-2.54,2.52-4.39,4.54-5.54,6.07-1.15,1.53-1.92,3.02-2.3,4.46-.14.53-.1,1.35-.18,1.97-3.58,3.46-6.17,5.95-7.48,7.19-1.43,1.35-2.79,2.49-4.1,3.41-1.3.92-2.52,1.39-3.66,1.41-2.23.05-3.99-.83-5.29-2.62-1.29-1.79-1.97-4.15-2.04-7.07-.03-1.27.16-3.1.56-5.48,8.99-9.81,15.96-19.39,20.91-28.73,4.95-9.34,7.35-17.18,7.21-23.51-.05-2.05-.24-3.49-.57-4.33-.34-.84-.98-1.24-1.94-1.22-.78.02-1.84.45-3.19,1.3-3.33,2.03-6.91,5.54-10.74,10.53-3.83,4.98-7.51,10.81-11.03,17.47-3.52,6.67-6.31,13.22-8.35,19.67-1.55,4.88-2.28,9.08-2.6,12.94-3.42,3.31-5.95,5.73-7.22,6.94-1.43,1.35-2.79,2.49-4.1,3.41-1.3.92-2.52,1.39-3.66,1.41-2.23.05-3.99-.83-5.29-2.62-1.29-1.79-1.97-4.15-2.04-7.07-.03-1.27.16-3.1.56-5.48,8.99-9.81,15.96-19.39,20.91-28.73,4.95-9.34,7.35-17.18,7.21-23.51-.05-2.05-.24-3.49-.57-4.33-.34-.84-.98-1.24-1.94-1.22-.78.02-1.84.45-3.19,1.3-3.33,2.03-6.91,5.54-10.74,10.53-3.83,4.98-7.51,10.81-11.03,17.47-3.52,6.67-6.31,13.22-8.35,19.67-2.05,6.45-3.02,12-2.92,16.65.13,5.74,1.15,10.36,3.07,13.85,1.92,3.49,4.5,5.2,7.74,5.13,5.67-.12,12.84-6.05,21.47-17.64.31,4.73,1.18,8.78,2.85,11.81,1.92,3.49,4.5,5.2,7.74,5.13,5.74-.13,13-6.19,21.77-18.04.27,2.17.75,4.3,1.66,6.35,1.22,2.73,2.6,4.94,4.15,6.64s2.82,2.54,3.82,2.51c2.09-.05,4.73-1.67,7.89-4.86,3.17-3.19,7.99-8.55,14.48-16.08-2.45,6.89-3.63,12.14-3.55,15.74.05,2.28.46,3.99,1.24,5.14s2.05,1.7,3.83,1.66c4.78-.11,12.51-6.28,23.12-18.39.27,2.7.78,5.31,1.74,7.76,1.26,3.19,2.95,5.75,5.09,7.68,2.14,1.94,4.46,2.88,6.97,2.82s5.14-.84,7.78-2.36,5.46-3.63,8.48-6.34c2.86-2.57,6.57-6.2,11.02-10.74.31,2.39.82,4.66,1.75,6.69,1.32,2.89,3.04,5.15,5.17,6.79,2.13,1.64,4.47,2.43,7.03,2.38,4.51-.1,9.65-3.72,15.42-10.87,3.42.11,6.03-.31,7.84-1.27,1.62-.86,3.77-2.57,6.32-4.92v.13c.54-.51,1.07-1.02,1.61-1.51s1.04-.96,1.51-1.4.98-.93,1.54-1.47c.56-.53,1.15-1.09,1.78-1.65-1.72,4.73-2.9,8.27-3.56,10.61-.66,2.34-.96,4.35-.93,6.04.06,2.5.72,4.54,2.01,6.11,1.29,1.57,2.96,2.33,5.01,2.28,5.79-.13,14.56-6.83,26.29-20.04.45-.42.89-.85,1.34-1.26.54-.49,1.04-.96,1.51-1.4s.98-.93,1.54-1.47,1.15-1.09,1.78-1.65c-1.72,4.73-2.9,8.27-3.56,10.61-.66,2.34-.96,4.35-.93,6.04.06,2.5.72,4.54,2.01,6.11,1.29,1.57,2.96,2.33,5.01,2.28,5.88-.13,14.82-7,26.83-20.62l-.1-4.58c-4.61,3.93-8.29,6.85-11.06,8.76s-5.01,2.88-6.74,2.92c-2.5.06-3.79-1.49-3.86-4.63-.05-2.32.34-4.79,1.17-7.41.83-2.62,2.04-5.51,3.64-8.66,1.6-3.16,3.58-6.75,5.95-10.76,1.28.06,2.36.12,3.25.17s1.77.1,2.64.15c.87.05,1.94.1,3.22.17,3.81-5.14,6.96-10.16,9.45-15.05-.69-.08-1.63-.17-2.84-.28s-2.59-.24-4.15-.39c.96-1.66,2.4-3.72,4.31-6.18s2.85-3.96,2.84-4.51ZM219.43,169.41c3.32-6.71,6.34-11.23,9.07-13.57.77-.52,1.28-.78,1.56-.79.73-.02,1.1.5,1.13,1.55.03,1.37-.48,3.4-1.54,6.12-1.06,2.71-2.53,5.77-4.41,9.19-1.88,3.42-3.9,6.63-6.04,9.64s-4.38,5.7-6.69,8.08c1.31-6.77,3.62-13.52,6.94-20.22ZM187.38,170.12c3.32-6.71,6.34-11.23,9.07-13.57.77-.52,1.28-.78,1.56-.79.73-.02,1.1.5,1.13,1.55.03,1.37-.48,3.4-1.54,6.12-1.06,2.71-2.53,5.77-4.41,9.19-1.88,3.42-3.9,6.63-6.04,9.64-2.15,3.01-4.38,5.7-6.69,8.08,1.31-6.77,3.62-13.52,6.94-20.22ZM259.02,200.41c-3.86,4.62-8.16,8.39-12.88,11.33-1.26.67-2.14,1-2.64,1.02-.86.02-1.56-.43-2.08-1.36-.52-.92-.8-2.11-.83-3.57-.09-4.01,2.35-7.96,7.3-11.85,4.95-3.89,13.29-8.68,25.02-14.36-5.39,7.91-10.01,14.18-13.88,18.8ZM354.69,191.74c-1.12,3.01-1.65,5.95-1.58,8.82.04,1.96.47,4,1.3,6.13-4.53,3.47-7.77,5.23-9.73,5.27-4.19.09-6.32-1.37-6.39-4.37,0-.41.5-3.18,1.53-8.31.6-1.93,1.81-3.86,3.63-5.79,1.83-1.93,4.06-3.85,6.71-5.75s5.84-4.04,9.57-6.4c-2.24,3.92-3.92,7.39-5.04,10.4Z"/>
        <path d="M244.64,130.14c2.13-1.37,4.62-3.37,7.46-6.01,2.7-2.51,5.9-5.74,9.53-9.61.21,2.47.73,4.87,1.77,7.18,1.22,2.73,2.6,4.94,4.15,6.64s2.82,2.54,3.82,2.51c2.09-.05,4.73-1.67,7.89-4.86s7.99-8.55,14.48-16.08c-2.45,6.89-3.63,12.14-3.55,15.74.05,2.28.46,3.99,1.24,5.14.78,1.15,2.05,1.7,3.83,1.66,4.72-.1,12.33-6.14,22.74-17.96.19,3.47.88,6.57,2.23,9.21,1.47,2.88,3.03,4.31,4.68,4.27.82-.02,1.63-.49,2.43-1.42s2.12-2.77,3.95-5.52c1.83-2.75,3.48-4.99,4.95-6.71,5.29-6.13,8.86-10.17,10.71-12.1,1.85-1.93,3.28-2.91,4.28-2.93.91-.02,1.38.42,1.4,1.34.02.78-.11,1.35-.37,1.72-3.16,5.54-5.59,10.1-7.29,13.66-1.7,3.57-2.53,6.04-2.5,7.41.07,3.37,1.3,5.03,3.66,4.98,2.19-.05,4.52-1.51,7.01-4.39,1.29-1.53,3.04-3.63,5.26-6.3,2.22-2.67,5.09-5.8,8.61-9.39s7.57-7.32,12.13-11.21c-1.49,2.59-3.14,5.44-4.94,8.55-1.8,3.12-3.25,5.78-4.34,7.99-1.09,2.21-1.89,4.12-2.4,5.73s-.75,3.19-.72,4.73c.04,1.6.54,2.92,1.52,3.97s2.18,1.56,3.59,1.53c1.6-.04,3.57-.75,5.94-2.15,2.36-1.4,5.13-3.49,8.31-6.27,3.18-2.78,6.7-6.09,10.59-9.91l-.11-4.85c-3.89,3.6-6.74,6.1-8.55,7.5-1.82,1.41-3.38,2.13-4.7,2.15-1.14.02-2.13-.33-2.96-1.06-.84-.73-1.27-1.72-1.3-2.95-.05-2.09.63-4.12,2.02-6.06,1.39-1.95,3.5-4.56,6.32-7.83,2.82-3.28,4.22-5.35,4.21-6.21-.03-1.32-.55-3.07-1.55-5.27s-2.03-3.25-3.08-3.18c-.55.01-1.78.86-3.7,2.54-1.92,1.68-4.15,3.74-6.67,6.16-2.52,2.42-5.99,5.75-10.41,9.97s-9.71,9.18-15.88,14.88c4.02-5.56,7.3-10.29,9.84-14.2,2.54-3.91,4.46-7.18,5.77-9.84,1.31-2.65,1.95-4.48,1.93-5.48-.03-1.5-.51-2.76-1.42-3.76s-2.05-1.49-3.42-1.46c-2.23.05-4.93,1.35-8.09,3.9-3.16,2.56-6.57,5.75-10.25,9.59-3.68,3.84-7.05,7.39-10.12,10.65-3.07,3.26-5,4.9-5.77,4.91-.96.02-1.45-.58-1.48-1.81-.02-.86.57-2.28,1.75-4.24,1.19-1.97,2.45-3.62,3.79-4.97,2.5-2.38,4.56-4.68,6.17-6.9,1.62-2.22,2.41-3.81,2.39-4.77s-.49-1.62-1.41-2.12-2.04-.74-3.37-.71c-2.14.05-4.16,1.04-6.05,2.97s-4.32,5.15-7.28,9.63c-1.89,3.09-3.28,5.68-4.17,7.75-.45,1.06-.78,2.22-.98,3.47-5.95,5.28-10.47,8.06-13.43,8.13s-4.68-1.58-4.76-4.96c-.05-2.05.36-3.79,1.22-5.22.86-1.43,2.36-3.67,4.5-6.7,2.15-3.03,3.2-5.1,3.18-6.19-.01-.55-.16-1.17-.45-1.87s-.69-1.62-1.22-2.74-.96-2.05-1.29-2.78c1.58-.58,2.69-1.07,3.32-1.47.63-.4.94-1.01.92-1.83-.01-.5-.27-1.27-.77-2.31-.5-1.04-1.17-1.95-2.01-2.73-.84-.78-1.74-1.16-2.69-1.14-3.55.08-8.55,1.72-15,4.91-6.45,3.19-13.06,8.01-19.85,14.45-2.54,2.52-4.39,4.54-5.54,6.07-1.15,1.53-1.92,3.02-2.3,4.46-.15.57-.11,1.44-.2,2.12-7.2,5.86-11.9,8.85-14.06,8.9-2.05.05-3.1-1-3.15-3.14-.03-1.46.45-3.21,1.46-5.26,1.01-2.05,2.44-4.39,4.32-7,1.88-2.62,4.42-5.92,7.61-9.91.44-.69.66-1.27.65-1.72-.02-1.05-.64-2.37-1.86-3.96-1.22-1.59-2.51-2.37-3.88-2.34-1.46.03-3.71,1.19-6.76,3.46-3.05,2.28-6.76,5.63-11.13,10.06s-9.53,10.1-15.49,17.02l-.18-8.2c3.56-4.09,6.72-7.88,9.49-11.39,2.77-3.5,5.83-7.49,9.17-11.96,3.34-4.47,5.85-7.92,7.53-10.35,1.68-2.43,4.53-6.63,8.54-12.6,3.71-5.64,6.31-9.79,7.83-12.45,1.51-2.66,2.26-4.55,2.23-5.69-.01-.64-.51-1.2-1.51-1.68s-2.28-.77-3.88-.87c-1.28-.06-3.74,1.89-7.39,5.87-3.65,3.98-8.23,9.82-13.73,17.53-5.51,7.71-12.12,17.62-19.83,29.73-3.66,5.78-5.88,10.41-6.67,13.89-.32,1.42-.53,2.76-.71,4.09-6.03,5.37-10.6,8.2-13.59,8.26-3.1.07-4.68-1.58-4.76-4.96-.05-2.05.36-3.79,1.22-5.22s2.36-3.67,4.5-6.7c2.15-3.03,3.2-5.1,3.18-6.19-.01-.55-.16-1.17-.45-1.87-.29-.7-.69-1.62-1.22-2.74-.53-1.13-.96-2.05-1.29-2.78,1.58-.58,2.69-1.07,3.32-1.47s.94-1.01.92-1.83c-.01-.5-.27-1.27-.77-2.31s-1.17-1.95-2.01-2.73-1.73-1.16-2.69-1.14c-3.55.08-8.55,1.72-15,4.91s-13.06,8.01-19.85,14.45c-2.54,2.52-4.39,4.54-5.54,6.07-1.15,1.53-1.92,3.02-2.3,4.46-.16.59-.12,1.5-.2,2.21-6.42,5.45-11.03,8.26-13.72,8.32s-3.99-.98-4.03-3.13c-.03-1.55.74-3.87,2.31-6.96,1.57-3.09,3.54-5.96,5.9-8.61,2-2.19,3.41-3.85,4.23-4.98.82-1.14,1.22-2.18,1.2-3.14-.03-1.5-.32-3-.85-4.49-.54-1.49-1.19-2.44-1.98-2.83-.37-.17-1.03-.25-1.99-.23-2.46.05-8.37.91-17.72,2.58,1.36-2.4,2.03-3.99,2.01-4.76-.02-.86-.48-1.29-1.4-1.27-.59.01-1.2.19-1.83.52-1.63.68-3.42,2.13-5.37,4.36-1.96,2.23-3.59,4.62-4.9,7.15-1.31,2.53-1.95,4.62-1.91,6.26.03,1.46.39,2.55,1.06,3.26.68.71,1.75,1.3,3.22,1.78-.63,1.06-1.41,2.24-2.34,3.53l-.1-.34c-11.43,14.57-19.93,24.53-25.5,29.85,4.08-13.91,7.42-25.94,10.03-36.07,2.61-10.13,4.49-17.84,5.67-23.13,1.16-5.29,1.65-8.27,1.46-8.94-.58-2.1-1.91-3.62-3.98-4.59-2.06-.98-4.2-.88-6.39.29-2.2,1.16-4.03,3.71-5.49,7.64-.68,1.9-1.87,4.22-3.57,6.98-1.7,2.75-4.12,6.43-7.27,11.02-3.4,5.03-6.58,9.66-9.53,13.89-2.94,4.24-6.2,8.75-9.75,13.55s-6.91,8.86-10.06,12.18c-2.92,3.06-5.56,4.93-7.93,5.6-2.04.56-3.83.32-5.41-.73-1.57-1.05-2.61-2.5-3.13-4.37-.7-2.49-.61-6.35.27-11.58.87-5.24,2.65-11.15,5.32-17.78,2.69-6.62,6.31-13.29,10.88-19.98,4.08-5.88,8.29-11.29,12.63-16.22s8.87-9.39,13.6-13.39c4.72-4,9.6-7.53,14.64-10.59.22,3.17-1.05,6.57-3.8,10.19-1.25,1.63-2.36,3.19-3.35,4.68-.97,1.49-1.4,2.49-1.25,3,.06.22.26.29.6.19.62-.17,2.73-1.87,6.33-5.1,3.59-3.22,7.08-6.76,10.44-10.59,3.37-3.83,5.54-7.18,6.49-10.08.63-2.11.68-4.08.17-5.88-.55-1.98-1.34-3.78-2.38-5.41-1.03-1.62-2.33-2.78-3.9-3.47-1.56-.69-3.42-.74-5.55-.13-3.67,1.03-9.04,3.82-16.09,8.38-7.07,4.56-14.44,10.37-22.14,17.42-7.7,7.06-14.35,14.47-19.97,22.24-3.62,5.1-6.75,10.44-9.39,16.05-2.63,5.61-4.66,11.22-6.1,16.86-1.43,5.63-2.18,10.94-2.25,15.91-.07,4.98.49,9.59,1.68,13.82,1.88,6.71,5.02,11.83,9.4,15.34,4.39,3.51,8.9,4.63,13.53,3.33,4.84-1.36,10.99-7.69,18.4-19.02.54-.7,1.16-1.51,1.88-2.44.71-.92,2.58-3.36,5.62-7.28,3.04-3.92,6.12-8.01,9.25-12.26,3.13-4.26,6.26-8.65,9.37-13.17-1.13,5.97-2.47,12.1-4.03,18.38-1.56,6.28-3.48,13.27-5.76,21-2.27,7.73-4.76,15.47-7.46,23.22-7.64,7.92-13.12,15.1-16.43,21.54-3.31,6.43-4.33,11.9-3.07,16.41.49,1.76,1.49,3.1,3,4.05,1.52.94,3.14,1.18,4.89.68,1.24-.34,2.67-1.26,4.26-2.74,1.6-1.48,2.65-2.81,3.17-4,.04-.07.9-1.77,2.58-5.1,1.68-3.34,3.63-7.48,5.82-12.45,2.21-4.97,4.73-11.26,7.59-18.87,7.33-8.63,13.45-16.29,18.39-23,4.94-6.7,9.87-13.67,14.79-20.88l-.03-.1c3.16-3.52,5.93-7.2,7.82-11.21.95-.2,2.31-.49,4.08-.84,1.77-.36,3.45-.7,5.04-1.03,1.59-.33,3.02-.65,4.29-.95-2.35,2.97-4.46,5.94-6.33,8.93-1.87,2.98-3.28,5.74-4.23,8.26-.95,2.53-1.4,4.77-1.36,6.73.07,3.32.77,5.85,2.08,7.58,1.31,1.72,2.93,2.57,4.84,2.53,1.64-.04,3.5-.75,5.56-2.14,2.06-1.39,4.3-3.25,6.71-5.58,2.23-2.16,5.07-5.13,8.39-8.75.24,2.33.74,4.6,1.72,6.78,1.22,2.73,2.6,4.94,4.15,6.64,1.54,1.7,2.82,2.54,3.82,2.51,2.09-.05,4.73-1.67,7.89-4.86,3.17-3.19,7.99-8.55,14.48-16.08-2.45,6.89-3.63,12.14-3.55,15.74.05,2.28.46,3.99,1.24,5.14.78,1.15,2.05,1.7,3.83,1.66,4.72-.1,12.3-6.12,22.68-17.9,0,.14-.03.3-.02.45.19,8.75,2.07,13.08,5.62,13,.86-.02,1.77-.56,2.7-1.63.93-1.07,2.73-3.38,5.39-6.92,2.66-3.55,5.43-7.02,8.32-10.4.93-1.16,2.09-2.57,3.46-4.21s2.96-3.23,4.75-4.75,3.7-2.87,5.72-4.06c-4.01,6.11-7.08,11.4-9.19,15.89-2.11,4.49-3.13,8.42-3.06,11.79.09,4.19,1.92,6.25,5.47,6.17,1.5-.03,3.32-.73,5.46-2.1ZM277.35,103.37c4.95-3.89,13.29-8.68,25.02-14.36-5.39,7.91-10.01,14.18-13.88,18.8s-8.16,8.39-12.88,11.33c-1.26.67-2.14,1-2.64,1.02-.86.02-1.56-.43-2.08-1.36-.52-.92-.8-2.11-.83-3.57-.09-4.01,2.35-7.96,7.3-11.85ZM180.58,110.18c-3.86,4.62-8.16,8.39-12.88,11.33-1.26.67-2.14,1-2.64,1.02-.86.02-1.56-.43-2.08-1.36-.52-.92-.8-2.11-.83-3.57-.09-4.01,2.35-7.96,7.3-11.85,4.95-3.89,13.29-8.68,25.02-14.36-5.39,7.91-10.01,14.18-13.88,18.8Z"/>
        <path d="M119.29,271.74c-5.67,2.06-10.3,2.89-13.87,2.47-3.58-.41-5.86-1.97-6.83-4.67-1.14-3.14-.34-7.51,2.42-13.13,2.76-5.61,7.19-11.78,13.3-18.48,4.12-4.43,8.02-8.09,11.68-10.98,3.65-2.88,6.89-5.17,9.72-6.85,2.82-1.68,6.64-3.87,11.46-6.55,3.12-1.7,5.21-4.22,6.27-7.56,1.06-3.35,1.22-6.04.48-8.08-.58-1.6-1.81-2.3-3.67-2.13-1.86.18-5.77,1.35-11.72,3.51-8.15,2.96-15.03,5.37-20.66,7.23-5.62,1.85-10.38,3.23-14.27,4.1-3.88.89-6.82,1.2-8.81.97-2-.24-3.23-1.03-3.7-2.35-.92-2.53.7-6.68,4.87-12.43,4.18-5.76,9.72-11.42,16.64-16.99,6.92-5.57,13.8-9.6,20.63-12.08,4.4-1.6,8.03-2.35,10.87-2.26-2.09,3.18-3.71,5.81-4.87,7.84-1.17,2.04-2.22,4.92-3.18,8.64,3.99-5.5,8.38-10.62,13.17-15.35,4.8-4.74,7.54-7.57,8.22-8.51.69-.94.62-2.56-.22-4.87l-2.04-5.62c-1.12-3.08-2.09-5.12-2.88-6.11-.79-.99-2.51-1.4-5.16-1.21-2.64.18-6.99,1.37-13.05,3.57-10.52,3.82-19.78,8.51-27.76,14.07-7.99,5.55-14.39,11.38-19.21,17.5-4.83,6.12-8.07,12.19-9.75,18.23s-1.64,11.42.07,16.15c1.35,3.69,3.62,6.66,6.85,8.92,3.22,2.26,7.01,3.28,11.35,3.08,4.2-.28,8.07-.88,11.6-1.79,3.54-.91,7.55-2.15,12.07-3.72,4.51-1.58,7.63-2.6,9.35-3.08,1.74-.47,2.72-.38,2.96.29.23.6-.33,1.3-1.66,2.1-9.34,5.52-17.27,11.29-23.77,17.33-6.5,6.04-11.54,11.97-15.09,17.79-3.56,5.81-5.76,11.33-6.6,16.56-.84,5.23-.46,10.06,1.14,14.46,2.2,6.06,6.47,10.01,12.81,11.85s13.33,1.37,20.99-1.41c6.61-2.4,13.37-5.82,20.27-10.27,6.9-4.43,13-9.25,18.32-14.42,5.32-5.17,9.06-9.93,11.22-14.27,2.6-5.19,3.81-10.07,3.61-14.64-.2-4.57-1.33-9.53-3.4-14.89-13.88,24.93-30.59,40.95-50.15,48.05Z"/>
      </g>
    </g>
  </g>
</svg>